# xmcd
#
# Track frame offsets: 
#        150
#        31682
#        59059
#        105189
#        135116
#        162498
#        195055
#        209985
#        249628
#        270098
#        305678
#        327630
#
# Disc length: 4649 seconds
#
# Revision: 10
# Processed by: cddbd v1.5.2PL0 Copyright (c) Steve Scherf et al.
# Submitted via: ExactAudioCopy v0.99pb5
#
DISCID=a212270c
DTITLE=Guarneri Quartet - Beethoven - String Quartets Op. 18 Nos. 5& 6
DTITLE=Op. 95 "Serioso"
DYEAR=1987
DGENRE=Classical
TTITLE0=01. String Quartet in A major Op. 18 No. 5 - 1. Allegro
TTITLE1=02. String Quartet in A major Op. 18 No. 5 - 2. Menuetto
TTITLE2=03. String Quartet in A major Op. 18 No. 5 - 3. Andante cantab
TTITLE2=ile
TTITLE3=04. String Quartet in A major Op. 18 No. 5 - 4. Allegro
TTITLE4=05. String Quartet in B flat major Op. 18 No. 6 - 1. Allegro c
TTITLE4=on brio
TTITLE5=06. String Quartet in B flat major Op. 18 No. 6 - 2. Adagio ma
TTITLE5=non troppo
TTITLE6=07. String Quartet in B flat major Op. 18 No. 6 - 3. Scherzo, 
TTITLE6=allegro
TTITLE7=08. String Quartet in B flat major Op. 18 No. 6 - 4. La Malinc
TTITLE7=onia, adagio-allegretto
TTITLE8=09. String Quartet in F minor Op. 95 ''Serioso'' - 1. Allegro 
TTITLE8=con brio
TTITLE9=10. String Quartet in F minor Op. 95 ''Serioso'' - 2. Allegret
TTITLE9=to ma non troppo
TTITLE10=11. String Quartet in F minor Op. 95 ''Serioso'' - 3. Allegro
TTITLE10=assai vivace ma serioso
TTITLE11=12. String Quartet in F minor Op. 95 ''Serioso'' - 4. Larghet
TTITLE11=to espressivo-allegretto agitato
EXTD=YEAR: 1987
EXTT0=
EXTT1=
EXTT2=
EXTT3=
EXTT4=
EXTT5=
EXTT6=
EXTT7=
EXTT8=
EXTT9=
EXTT10=
EXTT11=
PLAYORDER=
